<svg xmlns="http://www.w3.org/2000/svg" viewBox="0 0 64 64" role="img">
  <rect width="64" height="64" rx="12" fill="#00005B"/>
  <rect x="2" y="2" width="60" height="60" rx="10" fill="none" stroke="#9999FF" stroke-width="4"/>
  <path fill="#9999FF" d="m20.8 16.5-11.7 33.5h7.3l2.4-7.6h11.9l2.5 7.6h7.6L28.9 16.5h-8.1Zm.1 19.5 3.8-11.8 3.9 11.8h-7.7ZM39.8 37.7c0-7.5 4.7-13.1 12.1-13.1 8.5 0 11.9 6.5 11.9 13.7 0 .7 0 1.4-.1 2H46.5c.7 3.2 2.9 4.8 5.9 4.8 2.3 0 4-.7 5.9-2.5l3.9 3.5c-2.3 2.8-5.5 4.5-9.9 4.5-7.3 0-12.5-5.2-12.5-12.9Zm6.6-1.9h10.8c-.4-3.2-2.3-5.4-5.3-5.4s-4.9 2.1-5.5 5.4Z"/>
</svg>
