<svg xmlns="http://www.w3.org/2000/svg" viewBox="0 0 64 64" role="img">
  <rect width="64" height="64" rx="12" fill="#001E36"/>
  <rect x="2" y="2" width="60" height="60" rx="10" fill="none" stroke="#31A8FF" stroke-width="4"/>
  <path fill="#31A8FF" d="M14 16.5h12.1c7.9 0 12.4 4.4 12.4 11.3 0 7.3-5.4 11.4-12.8 11.4H21V50h-7V16.5Zm7 6.3v10.3h4.4c4 0 6.2-1.9 6.2-5.2s-2.3-5.1-6.1-5.1H21ZM39.7 46.7l3.3-4.8c2.5 1.8 5.2 2.8 7.6 2.8 2 0 3-.7 3-1.9 0-1.5-2.4-2-5.1-2.8-3.5-1-7.4-2.6-7.4-7.5 0-5.1 4.1-7.9 9.2-7.9 3.2 0 6.7 1.1 9.4 2.9l-3 5c-2.4-1.4-4.8-2.3-6.6-2.3-1.7 0-2.6.7-2.6 1.8 0 1.4 2.3 2 5 2.9 3.5 1.2 7.5 2.8 7.5 7.4 0 5.5-4.1 8-9.7 8-3.6 0-7.6-1.2-10.6-3.6Z"/>
</svg>
